<?xml version="1.0" encoding="utf-8"?>
<!-- Generator: Adobe Illustrator 25.0.0, SVG Export Plug-In . SVG Version: 6.00 Build 0)  -->
<svg version="1.1" id="Capa_1" xmlns="http://www.w3.org/2000/svg" xmlns:xlink="http://www.w3.org/1999/xlink" x="0px" y="0px"
	 viewBox="0 0 2046 521" style="enable-background:new 0 0 2046 521;" xml:space="preserve">
<g>
	<path d="M290.6,185.9h30.2c0,24.6,19.6,34.2,66.4,34.2c40.7,0,57.7-6.7,57.7-25.2c0-18.3-12.6-20.9-59.2-23.9l-8.7-0.7
		c-60.5-3.7-81.8-15.9-81.8-47.2c0-30.7,29.8-43.7,84-43.7c58.8,0,88.4,17.4,89.2,53.3h-30c0-24.2-21.5-31.6-61.6-31.6
		c-37.4,0-51.6,6.1-51.6,22c0,18.1,13.1,22,55.7,25l9.1,0.7c54.6,3.9,84.9,8.3,84.9,45.3c0,36.6-33.1,47.9-87.7,47.9
		C324.5,241.8,291.7,227.9,290.6,185.9z"/>
	<path d="M503,83.2h29.2V148h123.6V83.2h29.2v154.3h-29.2v-64.9H532.1v64.9H503V83.2z"/>
	<path d="M712.8,160.2c0-49.2,39.8-81,102.3-81c62.2,0,102.1,32,102.1,81c0,49.4-39.8,81.6-102.1,81.6
		C752.6,241.8,712.8,209.6,712.8,160.2z M815.1,217c44.6,0,72-23.3,72-56.8c0-33.3-27.2-56.4-72-56.4c-44.8,0-72,23.1-72,56.4
		C743,193.9,770.2,217,815.1,217z"/>
	<path d="M925.8,83.2h29.8l51.6,132.7l63.1-132.7h38.1l63.3,132.7l51.6-132.7h29.6l-60.3,154.3h-40.7l-62.5-132.3L1027,237.5h-40.7
		L925.8,83.2z"/>
	<path d="M1274.5,83.2h29.2v154.3h-29.2V83.2z"/>
	<path d="M1340.2,83.2h42.9l116.6,128v-128h28.9v154.3H1486l-116.6-128v128h-29.2V83.2z"/>
	<path d="M1556.5,160.6c0-49.6,40.3-81.6,102.1-81.6c59,0,92.5,27.2,96.2,60.1h-32.9c-2.6-13.9-21.1-33.7-63.1-33.7
		c-47.7,0-70.5,26.5-70.5,55.3c0,29.8,23.5,54.8,73.1,54.8c27.4,0,48.5-4.4,68.1-14.8v-17h-74.6v-26.3h99.9v59.4
		c-25.2,16.5-56.1,25-95.1,25C1597,241.8,1556.5,209.8,1556.5,160.6z"/>
	<path d="M260.3,353.3c0-49.2,41.6-81,100.5-81c52.7,0,91.4,26.8,96,62.5h-30.7c-3.7-18.3-27.6-37.9-65.3-37.9
		c-42.7,0-70.3,23.5-70.3,56.4c0,33.1,27.6,56.8,70.3,56.8c37.6,0,61.6-19.8,65.3-38.3h30.7c-4.4,36.1-43.3,63.1-96,63.1
		C301.9,434.9,260.3,402.7,260.3,353.3z"/>
	<path d="M482.5,353.3c0-49.2,39.8-81,102.3-81c62.2,0,102.1,32,102.1,81c0,49.4-39.8,81.6-102.1,81.6
		C522.4,434.9,482.5,402.7,482.5,353.3z M584.8,410.1c44.6,0,72-23.3,72-56.8c0-33.3-27.2-56.4-72-56.4c-44.8,0-72,23.1-72,56.4
		C512.8,387.1,540,410.1,584.8,410.1z"/>
	<path d="M715,276.3h44L830.5,399l71.4-122.7h43.7v154.3h-28.9V304.1L844,430.6h-27.2l-72.7-126.4v126.4H715V276.3z"/>
	<path d="M982.4,276.3h111.4c37.6,0,61.4,20.9,61.4,55.3c0,34.2-23.7,55.3-61.4,55.3h-82.3v43.7h-29.2V276.3z M1087.7,362.2
		c22.9,0,37.4-9.1,37.4-30.7c0-21.5-14.6-30.5-37.4-30.5h-76.2v61.2H1087.7z"/>
	<path d="M1186.5,355.3v-79h29.2v78.1c0,28.1,11.3,55.7,60.9,55.7c49.4,0,60.7-27.9,60.7-55.7v-78.1h29.2v79
		c0,47.2-23.1,79.6-89.9,79.6C1209.6,434.9,1186.5,402.5,1186.5,355.3z"/>
	<path d="M1392.6,276.3h178v24.8h-74.4v129.5h-28.9V301.1h-74.6V276.3z"/>
	<path d="M1581.1,353.3c0-49.2,39.8-81,102.3-81c62.2,0,102.1,32,102.1,81c0,49.4-39.8,81.6-102.1,81.6
		C1620.9,434.9,1581.1,402.7,1581.1,353.3z M1683.4,410.1c44.6,0,72-23.3,72-56.8c0-33.3-27.2-56.4-72-56.4s-72,23.1-72,56.4
		C1611.3,387.1,1638.6,410.1,1683.4,410.1z"/>
</g>
</svg>
